<?xml version="1.0" encoding="utf-8"?>
<!-- Generator: Adobe Illustrator 24.0.3, SVG Export Plug-In . SVG Version: 6.00 Build 0)  -->
<svg version="1.1" id="レイヤー_1" xmlns="http://www.w3.org/2000/svg" xmlns:xlink="http://www.w3.org/1999/xlink" x="0px"
	 y="0px" viewBox="0 0 1280 640" style="enable-background:new 0 0 1280 640;" xml:space="preserve">
<style type="text/css">
	.st0{fill:#00F9FF;}
</style>
<g transform="translate(0.000000,640.000000) scale(0.100000,-0.100000)">
	<path d="M3182,5991c-186-132-188-134-218-193s-30-74-1-82c56-15,64-9,114,80l48,86l143,69l143,68l-27,41c-15,22-32,40-38,40
		C3340,6099,3266,6050,3182,5991z"/>
	<path d="M10598,6093c-31-8-20-20,33-39c28-10,54-25,59-34c4-8,13-47,20-87c7-39,16-76,19-81c6-11,339-38,348-28c7,7-17,105-28,112
		c-5,3-46,0-91-7l-82-12l-61,66c-50,56-71,71-128,92c-37,14-68,24-70,24C10616,6098,10607,6096,10598,6093z"/>
	<path d="M4542,6050c-29-10-67-27-85-38c-405-244-524-317-534-326s-1-44,43-166c30-84,54-163,52-174c-3-17-21-5-113,74
		c-60,51-119,102-131,112c-19,17-26,18-80,5l-59-13l2-84c2-47,5-90,7-96c3-8,20-8,60-1c35,6,60,7,65,1c10-9,81-242,81-263
		c0-12-26-24-79-36l-33-7l7,88c8,106-3,147-38,142c-17-2-22-9-20-29c1-20-14-42-67-94c-73-72-86-76-116-30c-16,25-16,26,26,71
		c37,40,41,50,37,82c-7,55-74,362-80,368c-8,8-108-119-103-131c36-97,68-217,61-224c-6-6-48,5-110,29c-55,22-105,39-112,40
		c-7,0-26-20-42-44c-55-80-43-76-239-76h-177l-41-46l-40-47l-47,27l-47,28l-96-101l-97-102l-42,7c-41,6-43,5-53-25
		c-6-17-17-31-24-31c-15,0-168,183-168,200c0,9,11,11,36,7c32-5,50-15,99-51c8-6,38-3,80,7c124,31,126,54,13,135
		c-109,78-96,72-205,88c-52,8-99,17-104,20s-9,18-9,34c0,29-42,70-72,70c-7,0-94-38-193-84l-180-84l-146-203
		c-104-144-153-205-172-212c-18-6-43-34-73-80l-46-71l6-75c4-41,9-78,12-83c10-16,52-7,108,23c34,17,69,29,84,27c24-3,30-12,53-78
		c25-70,28-75,55-75c25,0,31,6,41,38c7,21,33,63,58,94c49,60,52,72,30,152c-10,40-11,59-3,74c17,32,158,226,169,232
		c15,10,84-4,106-21c17-13,12-19-68-96l-87-83l5-55c7-69,21-100,55-119c24-14,36-14,118,3c84,17,93,17,108,3c13-14,13-19,2-32
		c-25-30-70-47-106-40c-43,8-88-17-105-57c-6-16-24-39-39-51s-44-48-64-80c-39-62-64-78-155-99c-44-10-52-9-84,11
		c-23,14-44,19-63,15c-23-4-37,1-64,24c-33,28-34,32-23,61c13,34,1,50-22,31c-18-15-19-33-3-77c15-41,1-59-52-68
		c-43-8-55-18-142-127l-70-88h-53c-47,0-54-3-60-22c-4-13-18-33-32-44l-26-22l18-77c14-65,15-79,3-86c-7-5-51-9-98-9
		c-79,0-88-2-133-32l-48-33l6-60c3-33,8-75,12-94l6-34l90,7c50,3,108,6,130,6c36,0,45,6,120,87c76,80,90,90,197,140
		c146,69,153,68,268-52c45-47,86-85,91-85s13-9,16-20c8-27,23-25,30,3c5,17-5,34-42,72c-26,28-61,59-76,68c-37,24-63,83-46,103
		c6,8,16,14,21,14c6,0,59-32,119-71c87-57,109-76,109-95c0-37,59-124,84-124c28,0,46,18,46,46c0,26,17,34,75,34c27,0,58,8,80,21
		c34,20,36,25,30,56c-5,29,0,41,39,91c65,85,66,86,123,70c35-10,49-19,51-34c2-11,12-25,23-32c26-17,49,0,49,34c0,22,4,24,55,24
		c55,0,60-4,55-39c-1-8,27-42,61-77l63-63l-28-11c-16-6-61-13-101-17c-58-4-77-2-97,11c-25,16-30,15-154-33c-71-27-137-52-146-56
		c-26-10-23-59,5-91c23-26,24-27,76-14c42,10,68,10,129,0c89-14,102-22,102-61c0-29-38-65-147-140l-43-30l-92,26
		c-63,17-118,25-172,25c-73,0-81-2-113-30c-18-16-37-30-41-29c-4,0-65,26-137,57l-130,58l-45,68l-45,67l-95-5c-52-2-144-16-203-30
		c-68-16-138-26-186-26c-71,0-80-3-129-35c-61-41-74-60-98-139c-18-56-23-62-126-143c-59-46-109-92-112-101c-2-9-7-96-11-192l-6-175
		l88-86c60-59,113-100,166-129l78-42l137,4c131,4,140,6,201,37l63,32l104-41l103-42l5-41c3-23,8-69,11-102c5-57,8-62,60-111l55-50
		v-205v-205l49-147c35-103,61-163,87-199c29-39,40-65,46-111c4-33,10-62,12-64s33-6,70-10c63-6,72-4,165,37c92,39,105,49,199,144
		l100,101l42,130l43,130l93,95l94,96l-20,114c-11,63-20,122-20,131s76,86,168,172c123,113,178,171,205,217c20,34,37,66,37,71
		s-48,9-108,9h-107l-93,87c-86,83-99,100-197,273c-107,189-125,238-82,226c12-4,33-8,47-9c17-1,30-12,40-33c17-34,307-441,321-450
		c34-21,341,109,412,175c25,23,67,93,67,112c0,4-15,22-33,40c-19,19-36,40-38,47c-3,10-14,9-49-7c-25-11-65-21-89-21
		c-42,0-48,4-112,73c-59,62-69,77-69,110v37h43c36,0,54-9,121-60c74-56,81-59,121-53c37,5,46,2,64-19c27-31,128-56,264-64l98-6
		l70-62c58-52,75-62,99-58c26,4,30,1,39-37c6-23,16-60,22-83s27-62,47-86c21-25,53-74,72-111c19-36,42-67,50-69c20-3,50,51,50,91
		c0,22,13,46,48,86c26,31,59,71,72,90c13,18,43,42,67,53s81,42,126,69s90,49,100,49c29,0,135-99,168-157c27-47,33-52,58-47
		c26,5,29,2,56-57c24-55,27-70,22-131c-6-67-6-68,23-83c20-10,33-28,41-56c11-36,74-107,86-96c14,15-13,82-44,110
		c-55,50-85,108-81,159c3,39,5,43,33,46c50,6,104-17,152-64l44-45l62,44c57,40,62,46,61,79c-1,24-13,51-42,89c-56,75-61,99-25,138
		c25,27,44,34,163,61c74,17,145,36,158,42c13,7,62,49,109,93c65,62,84,86,80,101c-3,10-14,70-24,133l-17,114l34,28
		c23,20,29,30,19,33c-8,2-34,10-58,18c-25,7-46,18-48,24s27,25,64,42c59,28,69,30,79,17c6-8,27-15,46-15c38,0,58-15,58-42
		c0-10,11-23,24-28c18-6,26-19,31-50c9-52,29-61,63-27c24,24,25,28,12,53c-8,15-25,31-37,37c-46,21-39,64,15,86c15,6,36,25,47,41
		c21,31,43,43,115,60c52,13,200,130,200,159c0,9,28,52,61,96l61,80l-6,56c-9,95-17,106-83,118c-70,14-143,46-143,63
		c1,11,219,200,256,221c7,4,122-2,255-13s244-18,247-15s-2,13-11,23c-9,9-13,22-9,28c12,17,123,104,133,104c5,0,21-7,34-16
		c23-15,27-15,60,5c51,30,67,28,59-6c-15-61-28-79-118-164c-103-98-108-107-109-231c-1-52,3-71,17-87c11-12,23-21,27-21
		c5,0,27,32,50,70c23,39,48,74,56,78c23,14,75,152,68,184c-5,21,0,41,19,72l26,44l117,7l118,7l90,68c50,38,99,78,109,89
		c11,12,36,24,57,27l38,6l-19,47c-10,26-15,52-12,57c4,6,27,18,52,27c30,12,54,31,72,57c15,22,35,40,44,40c8,0,51-34,95-76
		c44-41,85-74,92-72c13,5,30,51,41,109c6,33,4,37-28,54c-35,19-35,19-60-4c-29-28-37-24-60,27c-16,36-30,45-154,107
		c-76,37-170,83-210,101l-73,34l-13-33c-7-17-16-40-19-49c-8-24-25-23-90,7c-55,25-57,26-168,14l-113-12l-37,44c-21,24-39,51-39,60
		c0,34-25,42-112,33c-107-11-103-12-185,36c-58,33-72,46-77,71l-6,31l-73-6c-71-7-74-7-84,17c-8,17-25,28-57,36c-72,18-77,15-131-62
		c-56-79-57-80-195-92l-76-7l-73,68c-62,57-71,71-66,92c20,80,22,76-44,106c-34,15-67,26-74,23c-6-2-16-23-22-48c-8-32-16-45-31-47
		c-10-1-91,13-178,32l-160,34l-169-69c-93-39-176-69-185-67c-14,3-18,18-20,85l-3,81l73,24c70,24,74,27,90,69c24,61,23,112-2,134
		c-19,17-27,18-116,6c-110-15-120-11-106,42c7,24,6,39-1,46C4661,6075,4602,6072,4542,6050z M2240,4761c17-32-10-70-38-52
		c-14,8-33,57-25,65C2191,4787,2230,4779,2240,4761z M2128,4740c27-26,27-33-1-65c-19-23-26-25-50-16c-22,9-47,44-47,67
		c0,5,59,33,71,34C2104,4760,2116,4751,2128,4740z M4936,4326c-5-27-13-37-31-42c-13-3-26-12-29-20c-12-32-126-60-126-30
		c0,12,67,66,83,66c4,0,26,19,48,42C4927,4390,4947,4385,4936,4326z M2834,3969c37-29,36-73-4-94c-16-9-30-18-30-21c0-4,14-23,30-44
		c17-22,30-50,30-66c1-16,7-40,15-54c18-32,19-71,1-95c-20-27-120-34-146-10c-22,20-25,50-10,90c9,23,6,34-20,73c-16,25-30,50-30,56
		c-1,6-14,27-30,46c-35,40-35,40,63,96C2787,3995,2798,3997,2834,3969z M3156,3933c9-34-17-107-40-111c-24-5-66,36-66,63
		C3050,3944,3143,3987,3156,3933z"/>
	<path d="M10034,6038c4-13,9-36,13-52l6-29l-44,7c-127,20-121,21-162-21l-38-39l21-19c16-14,23-16,32-7c20,20,102,15,131-8
		c31-25,43-25,110,0c37,14,58,28,66,46c15,33,9,40-34,48c-30,6-39,15-57,52C10055,6062,10022,6079,10034,6038z"/>
	<path d="M10370,6029c-97-28-92-25-78-54c7-17,23-28,41-32c19-4,37-19,54-47c14-23,27-42,28-44c1-1,18,5,38,13c40,17,42,24,27,95
		C10457,6066,10468,6058,10370,6029z"/>
	<path d="M6018,5969c-26-14-24-80,2-104c19-17,21-17,64,6c28,15,47,32,51,47c7,28,9,25-32,46C6066,5982,6043,5984,6018,5969z"/>
	<path d="M10566,5914c-4-15-6-28-4-29c16-14,71-35,78-30c21,13,10,50-21,68C10579,5946,10573,5945,10566,5914z"/>
	<path d="M6200,5905c0-17,2-18,24-9c23,9,20,24-4,24C6209,5920,6200,5913,6200,5905z"/>
	<path d="M6355,5880c-16-26,31-49,69-34c23,9,20,19-9,32C6383,5893,6363,5893,6355,5880z"/>
	<path d="M9571,5739c-24-43-51-129-51-166c0-13,15-33,41-53l40-33l39,18c53,24,108,108,123,186c6,32,8,61,5,64c-7,8-107,25-143,25
		C9599,5780,9590,5774,9571,5739z"/>
	<path d="M10641,5723c-19-10-38-28-42-41c-7-19-3-26,23-41c30-19,31-19,74,2c32,15,45,28,50,50c3,15,4,31,1,33
		C10733,5740,10671,5738,10641,5723z"/>
	<path d="M10407,5660c6-60,6-60-21-60c-44,0-27-30,29-51c28-10,53-19,57-19s19,23,33,50c25,49,25,52,9,80c-15,24-78,60-106,60
		C10405,5720,10404,5693,10407,5660z"/>
	<path d="M11165,5710c-10-16,3-28,52-50c56-25,53-25,53,5c0,13-8,28-17,33C11223,5713,11171,5720,11165,5710z"/>
	<path d="M10876,5678l-49-32l6-68c5-62,9-72,57-131l52-65l121-4c96-4,141-11,210-32c92-29,107-43,107-100c0-19,16-31,95-69
		c52-25,95-48,95-51c0-10-65-66-83-72c-11-3-37,7-66,25c-26,17-51,31-56,31c-13,0-124-85-125-95c0-5,10-22,23-37l22-28l62,15
		c73,17,83,14,118-31c14-19,30-34,35-34c11,0,330,189,330,195c0,2-33,28-73,58l-72,54l-24,81c-13,45-29,82-35,83c-6,0-29,0-51,0
		c-36-2-49,6-127,71c-67,54-88,78-88,96c0,23-2,24-42,18c-138-21-135-21-142,8c-8,34-18,33-40-5c-28-47-41-31-41,47v69l-67,3
		c-43,2-71,8-78,17C10934,5715,10932,5715,10876,5678z"/>
	<path d="M2880,5569l-33-91l22-18c13-9,46-23,73-30c58-14,77-2,52,34c-8,12-14,46-15,81c-1,86-10,109-40,113
		C2915,5661,2911,5655,2880,5569z"/>
	<path d="M10045,5594l-100-25l-49,21c-66,27-73,26-96-20c-27-53-26-58,17-66s167-85,187-117c8-12,20-42,27-66c7-23,18-45,24-47
		c6-3,62,1,125,8l114,13l23,40c12,22,19,43,15,47s-34,16-67,26c-45,13-60,23-62,37c-1,11-5,55-8,98
		C10187,5634,10196,5631,10045,5594z"/>
	<path d="M10616,5512c-5-8-26-120-26-139c0-7,7-13,15-13c9,0,18-7,21-15c7-17-33-132-48-141c-5-3-29,1-54,11c-41,15-47,15-100,0
		c-41-12-88-16-168-14l-111,3l-14-32c-8-18-22-32-30-32c-9,0-63,9-121,20c-88,17-128,32-245,90l-140,70l-190,1c-104,0-195,0-202,0
		c-6-1-14-14-18-30c-11-53-20-53-181-10c-218,59-572,146-624,154c-48,7-25,18-307-154c-24-14-43-29-43-33s27-28,60-53s60-50,60-56
		c0-5-17-9-37-9c-21,0-43-4-50-8c-16-10-48-95-37-99c31-12,128-70,131-79c2-6-30-49-72-96c-41-48-75-92-75-98c0-13,123-174,141-185
		c6-4,18,0,28,9c25,22,37,20,80-15c29-23,40-40,45-70l6-40l47,33c25,18,80,75,121,126c82,100,108,115,99,57c-6-38-1-41,35-24
		c21,9,233-26,523-86c12-2,56-44,99-92c62-70,89-111,130-198l53-111l60-17c58-16,63-20,93-72c31-54,32-75,4-75c-8,0-14-3-14-7
		c-1-5-7-53-14-108c-13-95-12-104,10-183c27-99,38-117,105-173c28-24,118-128,201-231c82-104,153-188,158-188c4,0-26,50-66,111
		c-41,62-74,118-74,125c0,42,90-25,258-192l103-102l-3-48l-3-48l116-37c64-21,159-49,211-63c73-19,148-52,332-146
		c130-67,239-121,240-119c2,2-23,24-55,49c-46,35-61,54-69,85c-20,76-22,78-75,79c-49,1-49,1-66,46c-14,39-15,49-3,84
		c8,21,12,41,10,43c-2,3-22,7-43,9c-34,4-40,2-59-28c-22-37-28-37-147-17c-85,14-87,19-87,174c0,111,1,115,23,120
		c233,55,378,85,412,85c48,0,85-32,104-91c6-20,22-46,35-58l24-23l7,22c5,15-2,36-24,72c-17,27-31,52-31,56s43,50,96,102l95,95
		l-6,56c-4,45-2,60,10,73c12,11,21,13,34,7c14-8,35,5,104,66c60,52,87,83,87,98c0,22,87,105,111,105c6,0,27-10,46-21
		c28-18,43-20,84-15c91,12,104,28,37,47c-52,14-58,21-58,81v47l-47,6c-63,9-75,13-71,26c2,6,93,40,203,75c110,36,204,69,209,74
		c10,10-37,90-52,90c-5,0-30-7-56-16c-27-9-51-13-56-8c-4,5-38,77-75,159c-37,83-69,152-71,154c-3,3-27-1-55-8l-51-13l-118,117
		l-118,117l-58-22c-32-12-62-26-65-32c-4-5-5-60-2-122c3-85,9-121,25-155l21-44l-20-16c-11-9-32-25-47-36l-26-20l11-98
		c7-59,7-103,2-108s-27,0-53,14c-39,19-51,34-87,102l-41,80l-211,119c-136,77-211,125-211,135c0,9,14,67,30,130l29,114l77,78l77,78
		l-36,45c-59,71-55,74,89,56c79-10,82-9,147,20c37,17,67,33,67,35c0,3-8,17-17,31c-12,19-14,30-6,42c8,14,3,21-26,39
		c-20,12-41,23-48,23s-20-25-28-55c-9-30-22-55-28-54c-7,0-64,39-127,87l-115,87l-25,77C10648,5502,10628,5531,10616,5512z
		 M9701,5160c10-6,19-17,19-25c0-7,12-22,27-33l27-20l-33-30c-19-17-53-35-77-41c-70-18-76-16-73,23c2,19,0,38-4,42
		c-16,16-5,33,41,63C9683,5175,9676,5173,9701,5160z M9919,4835c40-10,82-13,112-9c46,6,48,5,55-21c3-14,3-30-2-34c-5-5-47-22-92-40
		c-85-32-174-41-188-20c-3,6,9,26,27,45c26,26,30,37,21,46c-13,13-16,48-4,48C9852,4850,9884,4843,9919,4835z M10514,4300
		c21-8,26-16,26-44c0-85-33-133-46-67c-4,17-15,38-25,47c-22,20-24,45-7,62C10477,4313,10481,4313,10514,4300z M10971,3993
		c26-18,76-47,113-64c62-29,86-51,86-80c0-7-10-10-29-6c-17,4-36,0-47-8s-31-15-46-15c-20,0-28,7-37,31c-9,26-13,29-30,19
		c-27-14-36-30-32-62c4-39-18-46-46-14c-27,31-31,90-8,116c13,15,11,16-33,17c-50,1-102,17-102,31c0,12,77,63,109,72
		C10902,4039,10915,4034,10971,3993z"/>
	<path d="M245,5088c-27-5-54-16-58-24c-11-19-81-18-97,1c-14,17-29,19-49,6c-10-7,4-25,59-77c67-64,76-69,128-75c31-4,61-5,68-2
		c6,2,37,33,68,68l56,64l-43,25C330,5102,321,5103,245,5088z"/>
	<path d="M10956,4953c-12-25-14-39-7-41c6-2,18-10,25-18c19-18,32-18,40,1c4,12,14,14,38,10c36-6,65,6,54,23c-3,6-29,18-56,27
		s-52,21-55,26C10984,4998,10974,4990,10956,4953z"/>
	<path d="M742,4534c-25-26-30-38-23-51c24-46,41-93,41-116c0-18,7-27,25-31c28-7,31-17,14-48c-9-17-8-24,5-33c25-18,20-60-9-79
		c-24-16-35-46-16-46c18,0,146,30,169,40c17,8,21,15,16,34c-3,13-1,33,5,45c10,18,2,31-69,111c-52,60-80,100-80,115
		c0,24-30,95-40,94C777,4569,760,4553,742,4534z"/>
	<path d="M8460,4479c0-5,5-7,10-4c6,3,10,8,10,11c0,2-4,4-10,4C8465,4490,8460,4485,8460,4479z"/>
	<path d="M662,4368c-6-6-28-14-49-17l-38-6v-60c0-58,1-60,28-63c42-5,79,23,71,53c-4,14,0,33,10,47c9,12,16,28,16,34
		C700,4373,674,4380,662,4368z"/>
	<path d="M6160,4198c0-46-7-110-15-143c-28-115-14-130,26-28c20,54,24,75,18,107c-5,23-8,65-9,94c0,28-4,52-10,52
		S6160,4246,6160,4198z"/>
	<path d="M12007,4088c-15-12-28-34-29-48c-3-23,2-26,62-41c36-10,78-17,94-18c29-1,29-1,11,19c-10,12-34,30-52,41
		c-18,12-39,32-46,46l-14,25L12007,4088z"/>
	<path d="M9465,4080c3-5,8-10,11-10c2,0,4,5,4,10c0,6-5,10-11,10C9464,4090,9462,4086,9465,4080z"/>
	<path d="M6130,3856c0-8-14-26-32-40c-35-27-34-45,1-26c15,8,27,8,41,0c17-9,29-6,63,17l43,28l-50,17C6135,3874,6130,3874,6130,3856
		z"/>
	<path d="M6038,3649c-58-67-143-129-200-148c-45-15-50-31-9-31c16,0,31-5,33-11c2-7,24,0,58,19c30,16,69,33,86,37c26,5,35,14,49,53
		c10,26,28,64,42,84c23,34,24,58,3,58C6095,3710,6067,3683,6038,3649z"/>
	<path d="M1448,3593c7-3,16-2,19,1c4,3-2,6-13,5C1443,3599,1440,3596,1448,3593z"/>
	<path d="M5730,3410c0-5,5-10,11-10c5,0,7,5,4,10c-3,6-8,10-11,10C5732,3420,5730,3416,5730,3410z"/>
	<path d="M5355,3109c-11-17,1-21,15-4c8,9,8,15,2,15S5358,3115,5355,3109z"/>
	<path d="M11080,3029c0-4,10-11,23-14c12-4,53-21,90-37c66-28,105-34,96-13C11284,2977,11080,3040,11080,3029z"/>
	<path d="M4934,2945c-18-15-18-15,5-13c14,2,26,9,29,16C4973,2965,4958,2963,4934,2945z"/>
	<path d="M11453,2913c-36-7-27-23,13-23c23,0,34,4,32,12C11493,2916,11483,2919,11453,2913z"/>
	<path d="M5337,2893c-2-5-7-24-11-45c-6-36-6-37,49-68c66-38,82-34,30,6c-37,28-40,43-20,97c6,13,2,17-18,17
		C5353,2900,5339,2897,5337,2893z"/>
	<path d="M11434,2624c-123-32-180-43-209-38l-40,5l33-20c17-11,32-28,32-36s-25-65-55-125s-55-118-55-128c0-23,127-354,138-361
		c47-30,223-169,227-179c3-8,0-112-6-233c-10-215-11-221-49-335l-39-116l16-74c15-69,15-87-1-252c-9-97-16-186-16-198
		c0-27,78-116,97-112c8,2,41,70,77,163c34,88,87,207,117,264l54,104l120,63c149,78,309,214,326,276c8,31,47,73,215,230l206,193
		l84,173l84,174l-55,77c-30,43-60,83-68,89c-7,7-90,28-183,47c-256,54-239,47-267,108l-24,52l-174,92c-158,84-184,95-279,113
		c-58,11-112,22-121,24S11527,2648,11434,2624z"/>
	<path d="M3844,2595c-13-20-14-28-4-40c17-20,40-2,40,31C3880,2620,3863,2624,3844,2595z"/>
	<path d="M5475,2599c-44-28-38-43,18-47c50-3,59,7,37,49C5517,2624,5513,2624,5475,2599z"/>
	<path d="M5120,2494c-47-30-104-64-128-74c-44-20-72-63-72-110c0-36,55-60,136-60h71l55,58c69,73,89,132,66,196c-8,22-21,42-29,43
		S5167,2524,5120,2494z"/>
	<path d="M4420,2487c0-25,141-165,212-210c42-27,79-55,82-63s20-14,41-14c52,0,58,26,14,59c-18,14-54,48-79,75s-60,55-79,63
		s-55,32-80,53C4488,2485,4420,2508,4420,2487z"/>
	<path d="M5314,2331c-18-28-24-49-22-77c4-50,28-58,28-10c0,42,13,46,36,11c21-32,36-32,24,0c-6,15-6,26,0,30c15,9,12,25-4,25
		c-23,0-31,22-13,35c23,16,21,25-3,25C5348,2370,5330,2355,5314,2331z"/>
	<path d="M5764,2289c-3-6-2-15,3-20s101-47,213-94c159-66,215-85,252-85c26,0,70-9,98-20s56-20,63-20c7,1-24,35-68,76
		c-76,71-85,76-180,106c-69,22-129,33-195,37c-52,4-105,12-117,19C5806,2303,5773,2304,5764,2289z"/>
	<path d="M4860,2162c0-18,27-32,93-45c57-12,69-12,87,0c41,29,32,32-122,48C4884,2169,4860,2168,4860,2162z"/>
	<path d="M5735,1940c-58-48-62-50-122-50c-62,0-63,0-210-98c-104-68-169-104-219-120l-71-22l-7-73c-6-63-3-82,20-147
		c14-41,29-102,33-135l6-60l70-8c65-8,87-5,294,42c124,28,232,51,242,51s70-25,134-55c95-45,131-68,193-126c73-68,77-71,115-65
		c23,4,45,2,53-5c10-8,25-4,64,18c44,24,60,43,120,139l69,110l-13,122l-14,122l-76,83c-41,45-109,118-150,162c-42,44-75,87-76,96
		c0,8-11,26-26,39c-21,21-27,22-34,10c-5-8-10-22-10-30c0-39-23-92-46-107c-24-16-28-15-79,10c-43,21-54,31-57,54c-2,23-14,34-63,60
		c-33,18-64,32-70,32C5800,1989,5768,1967,5735,1940z"/>
	<path d="M2655,1924c-9-14-37-35-61-45c-24-11-44-22-44-24s-7-39-15-82c-23-119-21-128,23-146c20-8,41-13,45-10c4,2,37,63,73,134
		c55,111,64,135,58,165c-5,29-10,34-34,34C2681,1950,2667,1942,2655,1924z"/>
	<path d="M7313,1159c-27-10-27-12-8-48c11-23,12-35,3-59c-10-24-9-36,2-56c7-15,18-26,24-26c14,0,96,81,96,95c0,6-21,32-47,57
		C7343,1161,7331,1167,7313,1159z"/>
	<path d="M7199,930c-36-26-84-69-107-96l-43-48l24-23c20-21,27-22,54-13c25,9,33,20,42,53c9,34,21,49,66,81c54,39,67,64,43,84
		C7268,975,7247,965,7199,930z"/>
	<path d="M6251,956c-8-9-8-21,0-45c14-39,38-38,52,3c8,24,6,32-9,43C6272,973,6265,973,6251,956z"/>
	<path d="M11548,364c-16-8-28-17-28-19c0-3,18-17,40-31c33-22,45-25,63-17c22,11,22,11-5,18c-19,5-30,16-35,35
		C11575,377,11574,378,11548,364z"/>
</g>
<g>
	<path class="st0" d="M199,49.5c-18.3,0-33.1,14.8-33.1,33.1c0,11.3,5.7,21.2,14.3,27.2c7.8,5.5,9.5,6.9,12.3,12.1
		c2.2,4.1,5.7,11.4,5.7,11.4c0.2,0.3,0.5,0.5,0.9,0.5c0.4,0,0.7-0.2,0.9-0.5c0,0,3.5-7.3,5.7-11.4c2.7-5.2,4.5-6.6,12.3-12.1
		c8.6-6.1,14.3-16,14.3-27.2C232.2,64.3,217.3,49.5,199,49.5z M199,104.8c-12.3,0-22.2-9.9-22.2-22.2c0-12.3,9.9-22.2,22.2-22.2
		c12.3,0,22.2,9.9,22.2,22.2C221.2,94.9,211.3,104.8,199,104.8z"/>
</g>
</svg>
